Simulation
nRows=24
nColumns=15
endheader
time  TH_x TH_y TH_z SC_y  SC_z  SC_x  AC_y  AC_z  AC_x  GH_y  GH_z  GH_yy  EL_x  PS_y
8.6175  0.000000  0.000000  0.000000  -42.441510741324365  -0.3148669610865222  -10.09010105834329  41.17976353712178  12.046856404044476  2.2587659068868526  67.30118243195678  8.104970729135333  -44.7180082844265  20.56223028086262  120.000000
8.67495  0.000000  0.000000  0.000000  -42.16021597770789  -0.3110623300931389  -10.675434547972424  40.92914849933414  12.026985546791517  2.486077203698037  64.31355093759096  8.784738842328998  -41.96340836954053  20.494685759631007  120.000000
8.7324  0.000000  0.000000  0.000000  -41.893927710722984  -0.3383461136609447  -11.271533766791073  40.865501515447974  11.955433931200897  2.901071615547199  62.38666913327317  9.787293233295856  -40.13035883297004  20.60721655767387  120.000000
8.78985  0.000000  0.000000  0.000000  -41.696020293933074  -0.37743859949618686  -11.85255192778199  41.054957578391296  11.853155102804894  3.5153403943921124  61.55293192369808  11.14540510857158  -39.31123408345821  20.8786784718717  120.000000
8.8473  0.000000  0.000000  0.000000  -41.62386140025818  -0.38604420414042473  -12.390331281415689  41.53623699245142  11.760836903495983  4.314209686720005  61.65884609947383  12.872066650351208  -39.45731398455377  21.242246402536068  120.000000
8.90475  0.000000  0.000000  0.000000  -41.72113006368365  -0.31811380248508453  -12.846136536320158  42.303348745141946  11.723699077443191  5.276679208378703  62.488270212260645  14.947847610127056  -40.47225416281116  21.61815574216245  120.000000
8.9622  0.000000  0.000000  0.000000  -41.99372925786693  -0.13073554880677968  -13.168435985270355  43.323442817671996  11.782048719344639  6.381706579679651  63.861313007459366  17.32556618846071  -42.28661321090384  21.94336040334766  120.000000
9.01965  0.000000  0.000000  0.000000  -42.40531978822811  0.21511964770038888  -13.293187447422744  44.55490924019644  11.971696479721382  7.605552935433405  65.64374536801523  19.94121659995792  -44.85423478464334  22.185334822369352  120.000000
9.0771  0.000000  0.000000  0.000000  -42.89056179329803  0.7608535010195336  -13.14544946086586  45.9551558519988  12.326086257298803  8.918428738012587  67.7195985841584  22.728844993152933  -48.1219285993035  22.33743833798041  120.000000
9.13455  0.000000  0.000000  0.000000  -43.3810399497137  1.5490107073854043  -12.642573965571545  47.48073150912874  12.873983483971504  10.286279824855185  69.96512164136097  25.634999367870144  -52.00184423602086  22.404714404505505  120.000000
9.192  0.000000  0.000000  0.000000  -43.835989740593334  2.6177289611007555  -11.698280245385321  49.07636955852147  13.627440157337166  11.68396738798037  72.23972907715596  28.621579113984872  -56.35721254502051  22.39095330471041  120.000000
9.24945  0.000000  0.000000  0.000000  -44.26310587128092  3.9921335272669727  -10.229812158444139  50.66688809234559  14.566444592404439  13.109082365720626  74.40114357749633  31.657062034854345  -61.012177040276455  22.291111069361186  120.000000
9.3069  0.000000  0.000000  0.000000  -44.71909970083105  5.673972317725483  -8.166993296573656  52.16609989532483  15.63453699542644  14.583332027613812  76.33185079303382  34.704021290837  -65.77696519511542  22.093227331683185  120.000000
9.36435  0.000000  0.000000  0.000000  -45.29276460983001  7.633451203836366  -5.461933096019053  53.497675826197906  16.746265647686794  16.1405922455351  77.95981695641812  37.71273430565831  -70.47461795927636  21.78691197782612  120.000000
9.421800000000001  0.000000  0.000000  0.000000  -46.08661290179178  9.798139867304936  -2.0995130854650257  54.61225652356964  17.801781016321854  17.807817786277855  79.25732444465945  40.62094664842725  -74.9535556146203  21.375750198957032  120.000000
9.47925  0.000000  0.000000  0.000000  -47.198543678561194  12.046076055578931  1.890620273388276  55.48728269050014  18.700173435000597  19.59167342028273  80.22779816693536  43.354712230707044  -79.09035813210126  20.883189981915244  120.000000
9.5367  0.000000  0.000000  0.000000  -48.69907112815971  14.206117127474903  6.419429230252581  56.11896908167216  19.350380171987364  21.47055516486984  80.89026984157891  45.830889348738  -82.78606495964841  20.348211955819547  120.000000
9.59415  0.000000  0.000000  0.000000  -50.59379399175642  16.091387731902653  11.326719425279796  56.52438164450657  19.688958824020332  23.38616394815499  81.27212052661964  47.97094942769277  -85.96553275677158  19.81398429708429  120.000000
9.6516  0.000000  0.000000  0.000000  -52.79529453174122  17.557547613937672  16.384530610504136  56.74762236423743  19.70086841402868  25.240221902054106  81.40487002554364  49.72345488885091  -88.57571869501334  19.31975626539611  120.000000
9.70905  0.000000  0.000000  0.000000  -55.13159318432363  18.545008947592535  21.321069977728506  56.850190372094886  19.419222203655963  26.91461107251486  81.331716253718  51.07606486871779  -90.59161156851258  18.895918339978884  120.000000
9.7665  0.000000  0.000000  0.000000  -57.38219760717361  19.086683021684166  25.86027137312422  56.89406403643664  18.909427662344605  28.296842053581052  81.11499185304164  52.05245099264409  -92.02407350645468  18.56288906261835  120.000000
9.82395  0.000000  0.000000  0.000000  -59.33007277738959  19.2903795045187  29.75931638587176  56.92788406728903  18.249019673551746  29.293867714627954  80.83243608580314  52.69897488253369  -92.92037927808508  18.33254475872904  120.000000
9.8814  0.000000  0.000000  0.000000  -60.79917883254842  19.295493746633408  32.831522195760144  56.9787340188024  17.511602133840167  29.838363340771007  80.56482460339504  53.06721405095107  -93.35573891205888  18.207572989259603  120.000000
9.93885  0.000000  0.000000  0.000000  -61.66730181048563  19.232316623496985  34.94861115913532  57.05253694893297  16.759966111742845  29.893401108871988  80.38103129339348  53.20346466951553  -93.41619240768894  18.178924760352384  120.000000
